# xmcd
#
# Track frame offsets:
# 183
# 35258
# 58565
# 89683
# 119678
# 145395
# 171375
# 193635
# 214780
# 240053
# 267013
# 301825
#
# Disc length: 4394 seconds
#
# Revision: 5
# Processed by: cddbd v1.5.1PL0 Copyright (c) Steve Scherf et al.
# Submitted via: Axialis_AX_CDPlayer 2.6
#
DISCID=a611280c
DTITLE=Various Artist - Bonzai Compilation III - Rave-Nation
DYEAR=1994
DGENRE=Techno
TTITLE0=Traxcalibur/Poetica
TTITLE1=Techno Junkies/Entrophy Step
TTITLE2=Dialectrum/Pitchfall (hard trance mix)
TTITLE3=Phrenetic System/Wayfarer
TTITLE4=Jones and Stephenson/The Second Rebirth
TTITLE5=Joyrider/Dodgem (NY mix)
TTITLE6=DJ Bountyhunter/Users Hunt
TTITLE7=Yves Deruyter - Rave City (Cherry Mix )
TTITLE8=Dream Your Dream - Mayday Dream
TTITLE9=Dj Jones and Dj Bountyhunter - Speed Area ( Megarave Mix )
TTITLE10=Bwp Experiments - Synapsys
TTITLE11=Alchemy - Transtory
EXTD=
EXTT0=
EXTT1=
EXTT2=
EXTT3=
EXTT4=
EXTT5=
EXTT6=
EXTT7=
EXTT8=
EXTT9=
EXTT10=
EXTT11=
PLAYORDER=
